<svg width="59" height="37" viewBox="0 0 59 37" fill="none" xmlns="http://www.w3.org/2000/svg">
<path d="M0.460397 36V1.09091H21.3922V4.84091H4.68767V16.6364H19.824V20.3864H4.68767V36H0.460397ZM58.1632 12H53.9359C53.6859 10.7841 53.2484 9.71591 52.6234 8.79545C52.0098 7.875 51.2598 7.10227 50.3734 6.47727C49.4984 5.84091 48.5268 5.36364 47.4586 5.04545C46.3905 4.72727 45.2768 4.56818 44.1177 4.56818C42.0041 4.56818 40.0893 5.10227 38.3734 6.17045C36.6689 7.23864 35.3109 8.8125 34.2995 10.892C33.2995 12.9716 32.7995 15.5227 32.7995 18.5455C32.7995 21.5682 33.2995 24.1193 34.2995 26.1989C35.3109 28.2784 36.6689 29.8523 38.3734 30.9205C40.0893 31.9886 42.0041 32.5227 44.1177 32.5227C45.2768 32.5227 46.3905 32.3636 47.4586 32.0455C48.5268 31.7273 49.4984 31.2557 50.3734 30.6307C51.2598 29.9943 52.0098 29.2159 52.6234 28.2955C53.2484 27.3636 53.6859 26.2955 53.9359 25.0909H58.1632C57.845 26.875 57.2655 28.4716 56.4245 29.8807C55.5836 31.2898 54.5382 32.4886 53.2882 33.4773C52.0382 34.4545 50.6348 35.1989 49.078 35.7102C47.5325 36.2216 45.8791 36.4773 44.1177 36.4773C41.1405 36.4773 38.4927 35.75 36.1745 34.2955C33.8564 32.8409 32.0325 30.7727 30.703 28.0909C29.3734 25.4091 28.7086 22.2273 28.7086 18.5455C28.7086 14.8636 29.3734 11.6818 30.703 9C32.0325 6.31818 33.8564 4.25 36.1745 2.79545C38.4927 1.34091 41.1405 0.613635 44.1177 0.613635C45.8791 0.613635 47.5325 0.869317 49.078 1.38068C50.6348 1.89205 52.0382 2.64205 53.2882 3.63068C54.5382 4.60795 55.5836 5.80114 56.4245 7.21023C57.2655 8.60795 57.845 10.2045 58.1632 12Z" fill="white"/>
</svg>
